<svg width="20" height="23" viewBox="0 0 20 23" fill="none" xmlns="http://www.w3.org/2000/svg">
<path d="M10 0C9.20974 0 8.57129 0.642383 8.57129 1.4375V2.3C5.31203 2.96484 2.85643 5.8668 2.85643 9.34375V10.4848C2.85643 12.5242 2.1644 14.5053 0.900877 16.0955L0.235632 16.9355C-0.023322 17.259 -0.0724341 17.7037 0.106155 18.0766C0.284744 18.4494 0.659782 18.6875 1.07054 18.6875H18.9295C19.3402 18.6875 19.7153 18.4494 19.8938 18.0766C20.0724 17.7037 20.0233 17.259 19.7644 16.9355L19.0991 16.1C17.8356 14.5053 17.1436 12.5242 17.1436 10.4848V9.34375C17.1436 5.8668 14.688 2.96484 11.4287 2.3V1.4375C11.4287 0.642383 10.7903 0 10 0ZM10 4.3125C12.7637 4.3125 15.0005 6.56309 15.0005 9.34375V10.4848C15.0005 12.6365 15.6211 14.7344 16.773 16.5312H3.227C4.3789 14.7344 4.9995 12.6365 4.9995 10.4848V9.34375C4.9995 6.56309 7.23633 4.3125 10 4.3125ZM12.8574 20.125H10H7.14257C7.14257 20.8887 7.44171 21.6209 7.97748 22.16C8.51324 22.699 9.241 23 10 23C10.759 23 11.4868 22.699 12.0225 22.16C12.5583 21.6209 12.8574 20.8887 12.8574 20.125Z" fill="white"/>
</svg>
