<svg width="46" height="56" viewBox="0 0 46 56" fill="none" xmlns="http://www.w3.org/2000/svg">
<path d="M45.9001 28C43.4001 28.1 36.2001 28.2 34.4001 28.3C25.7001 28.9 23.9001 30.7 23.3001 39.4C23.2001 41.2 23.1001 53.4 23.0001 55.9C22.9001 53.4 22.8001 41.2 22.7001 39.4C22.1001 30.7 20.3001 28.9 11.6001 28.3C9.8001 28.2 2.6001 28.1 0.100098 28C2.6001 27.9 9.8001 27.8 11.6001 27.7C20.3001 27.1 22.1001 25.3 22.7001 16.6C22.8001 14.8 22.9001 2.59998 23.0001 0.0999756C23.1001 2.59998 23.2001 14.8 23.3001 16.6C23.9001 25.3 25.7001 27.1 34.4001 27.7C36.2001 27.8 43.3001 27.9 45.9001 28Z" fill="white"/>
</svg>
