<svg width="350" height="625" viewBox="0 0 350 625" fill="none" xmlns="http://www.w3.org/2000/svg">
<rect x="8" y="22" width="338" height="584" rx="20" fill="#EBE7DD"/>
<path d="M26.25 56C26.25 50.6152 30.6152 46.25 36 46.25H316C321.385 46.25 325.75 50.6152 325.75 56V581C325.75 586.385 321.385 590.75 316 590.75H36C30.6152 590.75 26.25 586.385 26.25 581V56Z" stroke="black" stroke-width="0.5"/>
<path d="M136 533H224V601H136V533Z" fill="#EBE7DD"/>
<path d="M146.743 587.104C146.731 586.636 146.611 586.564 146.179 586.564H145.975V586.312L147.199 585.976C147.283 585.964 147.331 586 147.331 586.108V587.104H147.439C147.823 586.672 148.591 585.976 149.527 585.976C150.391 585.976 151.207 586.492 151.207 587.632V591.052C151.207 591.544 151.435 591.748 151.915 591.76V592.036H149.851V591.76C150.319 591.724 150.595 591.628 150.595 591.052V588.052C150.595 586.984 149.995 586.564 149.155 586.564C148.507 586.564 147.679 587.2 147.355 587.704V591.064C147.355 591.64 147.631 591.724 148.099 591.76V592.036H146.035V591.76C146.515 591.748 146.743 591.544 146.743 591.052V587.104ZM154.255 587.116C154.255 586.66 154.183 586.564 153.727 586.564H153.499V586.312L154.711 585.976C154.819 585.952 154.867 586.012 154.867 586.108V591.052C154.867 591.652 155.203 591.724 155.635 591.76V592.036H153.475V591.76C153.919 591.748 154.255 591.652 154.255 591.052V587.116ZM153.775 583.768C153.775 583.444 154.027 583.18 154.351 583.18C154.663 583.18 154.927 583.444 154.927 583.768C154.927 584.08 154.663 584.344 154.351 584.344C154.027 584.344 153.775 584.08 153.775 583.768ZM159.947 591.676C159.071 591.688 157.883 592.24 157.883 593.02C157.883 593.788 158.711 594.244 159.923 594.244C161.375 594.244 162.083 593.524 162.083 592.78C162.083 591.808 160.907 591.676 159.947 591.676ZM162.539 586.012L162.599 586.132C162.551 586.648 162.071 586.804 161.363 586.66C161.651 586.9 161.891 587.488 161.891 587.956C161.891 589.372 160.751 590.056 159.623 590.056C159.455 590.056 159.203 590.02 158.879 589.96C158.639 590.116 158.303 590.392 158.303 590.56C158.303 590.824 158.615 591.196 159.407 591.196L160.751 591.184C161.483 591.184 162.659 591.424 162.659 592.612C162.659 593.848 161.219 594.748 159.407 594.748C157.991 594.748 157.151 594.04 157.139 593.32C157.139 592.66 157.979 592.012 158.675 591.592C158.075 591.448 157.583 591.052 157.559 590.692C157.703 590.476 158.255 590.008 158.519 589.828C157.955 589.576 157.451 588.988 157.451 588.1C157.451 586.612 158.759 585.964 159.755 585.964C160.175 585.964 160.619 586.072 161.039 586.288C161.711 586.336 162.287 586.168 162.539 586.012ZM159.551 586.336C158.783 586.336 158.099 586.84 158.099 587.86C158.123 588.964 158.831 589.672 159.791 589.672C160.607 589.66 161.267 589.084 161.267 588.064C161.243 587.02 160.559 586.336 159.551 586.336ZM164.929 584.02C164.917 583.552 164.761 583.48 164.329 583.48H164.161V583.228L165.409 582.856C165.493 582.844 165.541 582.88 165.541 582.988V587.152H165.625C166.009 586.72 166.789 585.976 167.725 585.976C168.589 585.976 169.381 586.492 169.381 587.632L169.393 591.052C169.393 591.544 169.621 591.748 170.101 591.76V592.036H168.037V591.76C168.505 591.724 168.793 591.628 168.793 591.052L168.781 588.112C168.781 587.044 168.181 586.576 167.341 586.576C166.693 586.576 165.865 587.248 165.541 587.752V591.064C165.541 591.64 165.817 591.724 166.285 591.76V592.036H164.221V591.76C164.701 591.748 164.929 591.544 164.929 591.052V584.02ZM173.146 590.296C173.146 591.22 173.326 591.472 173.806 591.532C174.142 591.556 174.634 591.496 174.85 591.448L174.898 591.7C174.898 591.7 173.986 592.12 173.422 592.12C172.942 592.12 172.534 591.844 172.534 590.62V586.948C172.534 586.684 172.474 586.612 172.222 586.612H171.478V586.372L172.582 586.06V584.812L173.074 584.584C173.122 584.56 173.146 584.584 173.146 584.632V586.18H174.802V586.6H173.146V590.296ZM177.064 587.872H181.504V588.4H177.064V587.872ZM184.723 584.032C184.723 583.576 184.651 583.48 184.195 583.48H183.991V583.228L185.179 582.856C185.287 582.832 185.335 582.892 185.335 582.988V591.04C185.335 591.616 185.719 591.736 186.187 591.772V592.036H183.907V591.772C184.387 591.76 184.723 591.628 184.723 591.064V584.032ZM187.865 589.132C187.865 587.32 189.125 585.964 190.637 585.964C191.921 585.964 192.785 587.008 192.785 588.316C192.785 588.448 192.785 588.532 192.773 588.652L188.525 588.676C188.465 590.656 189.413 591.532 190.913 591.556C191.561 591.568 192.185 591.316 192.593 591.052L192.737 591.268C192.233 591.748 191.405 592.12 190.469 592.12C188.873 592.12 187.865 590.872 187.865 589.132ZM190.469 586.408C189.305 586.408 188.693 587.272 188.561 588.292L192.113 588.184C192.113 587.224 191.489 586.408 190.469 586.408ZM195.89 590.296C195.89 591.22 196.07 591.472 196.55 591.532C196.886 591.556 197.378 591.496 197.594 591.448L197.642 591.7C197.642 591.7 196.73 592.12 196.166 592.12C195.686 592.12 195.278 591.844 195.278 590.62V586.948C195.278 586.684 195.218 586.612 194.966 586.612H194.222V586.372L195.326 586.06V584.812L195.818 584.584C195.866 584.56 195.89 584.584 195.89 584.632V586.18H197.546V586.6H195.89V590.296ZM200.636 590.296C200.636 591.22 200.816 591.472 201.296 591.532C201.632 591.556 202.124 591.496 202.34 591.448L202.388 591.7C202.388 591.7 201.476 592.12 200.912 592.12C200.432 592.12 200.024 591.844 200.024 590.62V586.948C200.024 586.684 199.964 586.612 199.712 586.612H198.968V586.372L200.072 586.06V584.812L200.564 584.584C200.612 584.56 200.636 584.584 200.636 584.632V586.18H202.292V586.6H200.636V590.296ZM203.953 589.132C203.953 587.32 205.213 585.964 206.725 585.964C208.009 585.964 208.873 587.008 208.873 588.316C208.873 588.448 208.873 588.532 208.861 588.652L204.613 588.676C204.553 590.656 205.501 591.532 207.001 591.556C207.649 591.568 208.273 591.316 208.681 591.052L208.825 591.268C208.321 591.748 207.493 592.12 206.557 592.12C204.961 592.12 203.953 590.872 203.953 589.132ZM206.557 586.408C205.393 586.408 204.781 587.272 204.649 588.292L208.201 588.184C208.201 587.224 207.577 586.408 206.557 586.408ZM212.051 586.108V587.164H212.135C212.387 586.828 213.143 585.988 213.815 585.988C214.247 585.988 214.511 586.228 214.511 586.468C214.511 586.744 214.307 586.9 214.139 586.924C214.007 586.828 213.815 586.708 213.527 586.708C212.915 586.708 212.339 587.272 212.051 587.728V591.064C212.051 591.64 212.267 591.724 212.879 591.76V592.036H210.731V591.76C211.211 591.748 211.439 591.544 211.439 591.052V587.104C211.427 586.636 211.307 586.564 210.875 586.564H210.671V586.312L211.919 585.976H211.943C212.015 585.976 212.051 586.012 212.051 586.108Z" fill="black"/>
<ellipse cx="172.8" cy="46.8618" rx="17.2" ry="17.1382" fill="#EBE7DD"/>
<path d="M186.642 46.8618C186.642 54.4628 180.455 60.643 172.8 60.643C165.145 60.643 158.958 54.4628 158.958 46.8618C158.958 39.2609 165.145 33.0807 172.8 33.0807C180.455 33.0807 186.642 39.2609 186.642 46.8618ZM172.8 67C183.946 67 193 57.994 193 46.8618C193 35.7296 183.946 26.7236 172.8 26.7236C161.654 26.7236 152.6 35.7296 152.6 46.8618C152.6 57.994 161.654 67 172.8 67Z" fill="black" stroke="#EBE7DD" stroke-width="6"/>
<g clip-path="url(#clip0_128_2104)">
<path d="M54.0401 83.1107C51.7068 83.204 44.9868 83.2973 43.3068 83.3906C35.1868 83.9503 33.5068 85.6293 32.9468 93.7448C32.8535 95.4239 32.7601 106.804 32.6668 109.136C32.5735 106.804 32.4801 95.4239 32.3868 93.7448C31.8268 85.6293 30.1468 83.9503 22.0268 83.3906C20.3468 83.2973 13.6268 83.204 11.2935 83.1107C13.6268 83.0175 20.3468 82.9242 22.0268 82.8309C30.1468 82.2712 31.8268 80.5921 32.3868 72.4767C32.4801 70.7976 32.5735 59.4173 32.6668 57.0853C32.7601 59.4173 32.8535 70.7976 32.9468 72.4767C33.5068 80.5921 35.1868 82.2712 43.3068 82.8309C44.9868 82.9242 51.6135 83.0175 54.0401 83.1107Z" fill="black"/>
</g>
<g clip-path="url(#clip1_128_2104)">
<path d="M338.04 533.111C335.707 533.204 328.987 533.297 327.307 533.391C319.187 533.95 317.507 535.629 316.947 543.745C316.853 545.424 316.76 556.804 316.667 559.136C316.573 556.804 316.48 545.424 316.387 543.745C315.827 535.629 314.147 533.95 306.027 533.391C304.347 533.297 297.627 533.204 295.293 533.111C297.627 533.017 304.347 532.924 306.027 532.831C314.147 532.271 315.827 530.592 316.387 522.477C316.48 520.798 316.573 509.417 316.667 507.085C316.76 509.417 316.853 520.798 316.947 522.477C317.507 530.592 319.187 532.271 327.307 532.831C328.987 532.924 335.613 533.017 338.04 533.111Z" fill="black"/>
</g>
<g clip-path="url(#clip2_128_2104)">
<path d="M84.0401 61.1107C81.7068 61.204 74.9868 61.2973 73.3068 61.3906C65.1868 61.9503 63.5068 63.6293 62.9468 71.7448C62.8535 73.4239 62.7601 84.8042 62.6668 87.1362C62.5735 84.8042 62.4801 73.4239 62.3868 71.7448C61.8268 63.6293 60.1468 61.9503 52.0268 61.3906C50.3468 61.2973 43.6268 61.204 41.2935 61.1107C43.6268 61.0175 50.3468 60.9242 52.0268 60.8309C60.1468 60.2712 61.8268 58.5921 62.3868 50.4767C62.4801 48.7976 62.5735 37.4173 62.6668 35.0853C62.7601 37.4173 62.8535 48.7976 62.9468 50.4767C63.5068 58.5921 65.1868 60.2712 73.3068 60.8309C74.9868 60.9242 81.6135 61.0175 84.0401 61.1107Z" fill="black"/>
</g>
<g clip-path="url(#clip3_128_2104)">
<path d="M312.04 584.111C309.707 584.204 302.987 584.297 301.307 584.391C293.187 584.95 291.507 586.63 290.947 594.745C290.853 596.424 290.76 607.804 290.667 610.136C290.573 607.804 290.48 596.424 290.387 594.745C289.827 586.63 288.147 584.95 280.027 584.391C278.347 584.297 271.627 584.204 269.293 584.111C271.627 584.018 278.347 583.924 280.027 583.831C288.147 583.271 289.827 581.592 290.387 573.477C290.48 571.798 290.573 560.417 290.667 558.085C290.76 560.417 290.853 571.798 290.947 573.477C291.507 581.592 293.187 583.271 301.307 583.831C302.987 583.924 309.613 584.018 312.04 584.111Z" fill="black"/>
</g>
<defs>
<clipPath id="clip0_128_2104">
<rect width="80.2219" height="65.3333" fill="white" transform="matrix(0 -1 1 0 0 123.222)"/>
</clipPath>
<clipPath id="clip1_128_2104">
<rect width="80.2219" height="65.3333" fill="white" transform="matrix(0 -1 1 0 284 573.222)"/>
</clipPath>
<clipPath id="clip2_128_2104">
<rect width="80.2219" height="65.3333" fill="white" transform="matrix(0 -1 1 0 30 101.222)"/>
</clipPath>
<clipPath id="clip3_128_2104">
<rect width="80.2219" height="65.3333" fill="white" transform="matrix(0 -1 1 0 258 624.222)"/>
</clipPath>
</defs>
</svg>
